<svg width="39" height="57" viewBox="0 0 39 57" fill="none" xmlns="http://www.w3.org/2000/svg">
<line y1="-1" x2="18.9426" y2="-1" transform="matrix(-0.859643 0.510896 -0.769534 -0.638606 17.7056 8)" stroke="#333333" stroke-width="2"/>
<path d="M1.38665 17.8381L18.6134 26.6831" stroke="#333333" stroke-width="2"/>
<path d="M18.0098 26L1.4044 35.223" stroke="#333333" stroke-width="2"/>
<path d="M21.816 35.18C21.288 35.18 20.832 34.988 20.448 34.604C20.088 34.22 19.908 33.752 19.908 33.2C19.908 32.648 20.088 32.192 20.448 31.832C20.832 31.448 21.288 31.256 21.816 31.256C22.344 31.256 22.8 31.448 23.184 31.832C23.568 32.192 23.76 32.648 23.76 33.2C23.76 33.752 23.568 34.22 23.184 34.604C22.8 34.988 22.344 35.18 21.816 35.18ZM29.4449 35.18C28.9169 35.18 28.4609 34.988 28.0769 34.604C27.7169 34.22 27.5369 33.752 27.5369 33.2C27.5369 32.648 27.7169 32.192 28.0769 31.832C28.4609 31.448 28.9169 31.256 29.4449 31.256C29.9729 31.256 30.4289 31.448 30.8129 31.832C31.1969 32.192 31.3889 32.648 31.3889 33.2C31.3889 33.752 31.1969 34.22 30.8129 34.604C30.4289 34.988 29.9729 35.18 29.4449 35.18Z" fill="#333333"/>
</svg>
